<svg width="63" height="102" viewBox="0 0 63 102" fill="none" xmlns="http://www.w3.org/2000/svg">
<path d="M7.40327 2.11433C10.1261 1.53454 14.059 1.18163 19.2021 1.05559C25.3284 0.90434 30.3958 1.05559 34.4044 1.58496C41.1862 2.54286 46.2284 4.8368 49.5815 8.49196C53.1867 12.2732 55.0523 17.3652 55.2288 23.7176C55.4557 32.0867 53.0606 38.5904 48.0436 43.2286C45.9763 45.1697 45.2452 46.1276 45.8754 46.1024C46.0015 46.1024 47.2621 46.8838 49.6823 48.4467C53.2371 50.9675 56.1616 54.6227 58.4054 59.387C60.6492 64.1513 61.8593 69.2181 61.9853 74.5875C62.2375 84.2169 59.2373 91.0231 52.9598 95.0816C47.0604 98.7368 38.5894 100.703 27.5974 100.98C16.9835 101.258 10.1513 98.6107 7.12595 93.065C4.10061 87.3931 2.10894 65.8907 1.1257 28.5324C0.848381 17.5417 1.02486 10.5842 1.70556 7.71051C2.38626 4.81159 4.27709 2.94619 7.37806 2.11433H7.40327ZM32.564 24.3478C31.253 22.0035 29.942 21.8522 28.6058 23.8941C27.8747 25.0284 27.547 26.3645 27.5722 27.8517C27.6478 30.7255 28.631 32.1371 30.4967 32.0867C31.379 32.0867 32.085 31.5825 32.6144 30.6246C33.1438 29.6667 33.3959 28.5828 33.3707 27.3224C33.3455 26.188 33.0682 25.2049 32.5388 24.3478H32.564ZM36.6734 66.8234C35.8918 66.0923 35.1355 65.7394 34.4044 65.7646C33.3959 65.7898 32.6144 66.3444 32.0093 67.4284C31.4043 68.5123 31.1269 69.6719 31.1521 70.9071C31.2026 72.3944 31.6059 73.5287 32.3623 74.2597C33.2699 75.1168 34.1523 75.5201 35.0094 75.4949C37.0011 75.4445 37.9591 73.7304 37.8835 70.3525C37.8331 68.7392 37.4297 67.5544 36.6734 66.8234Z" stroke="#F1F1F1" stroke-miterlimit="10"/>
</svg>
