<svg width="467" height="379" viewBox="0 0 467 379" fill="none" xmlns="http://www.w3.org/2000/svg">
<path d="M446.289 222.056C446.289 99.418 347.443 0 225.509 0C103.576 0 7.1586e-05 99.418 7.1586e-05 222.056V360.652C-0.0132634 365.351 1.8369 369.862 5.14084 373.185C8.44477 376.508 12.9297 378.369 17.6022 378.356H42.7479C47.4204 378.369 51.9053 376.508 55.2093 373.185C58.5132 369.862 60.3634 365.351 60.35 360.652V245.526C60.35 235.749 68.2307 227.823 77.952 227.823H113.76C123.481 227.823 131.362 235.749 131.362 245.526V360.652C131.348 365.351 133.198 369.862 136.502 373.185C139.806 376.508 144.291 378.369 148.964 378.356H174.109C178.782 378.369 183.267 376.508 186.571 373.185C189.875 369.862 191.725 365.351 191.711 360.652V325.699C191.711 290.731 210.259 258.42 240.369 240.936C270.478 223.452 307.574 223.452 337.683 240.936C367.792 258.42 386.34 290.731 386.34 325.699V360.652C386.34 370.429 394.22 378.356 403.942 378.356H428.788C438.509 378.356 446.39 370.429 446.39 360.652L446.289 222.056ZM127.087 174.788C123.793 180.134 119.275 184.608 113.91 187.839C104.563 193.233 93.3377 194.249 83.1823 190.621C81.7067 190.161 80.3018 189.497 79.0081 188.648C67.4085 182.242 60.1997 169.99 60.1997 156.68C60.1997 143.37 67.4085 131.118 79.0081 124.712C80.3626 123.842 81.8368 123.178 83.3835 122.739C96.5846 118.071 111.277 121.368 121.253 131.237C128.267 137.752 132.244 146.926 132.217 156.528C132.206 162.973 130.431 169.291 127.087 174.788Z" fill="#B3B3B3"/>
<path d="M465.921 222.056C465.921 99.418 367.074 0 245.141 0C123.208 0 19.6317 99.418 19.6317 222.056V360.652C19.6184 365.351 21.4686 369.862 24.7725 373.185C28.0764 376.508 32.5614 378.369 37.2339 378.356H62.3796C67.052 378.369 71.537 376.508 74.8409 373.185C78.1449 369.862 79.995 365.351 79.9816 360.652V245.526C79.9816 235.749 87.8623 227.823 97.5837 227.823H133.391C143.113 227.823 150.993 235.749 150.993 245.526V360.652C150.98 365.351 152.83 369.862 156.134 373.185C159.438 376.508 163.923 378.369 168.595 378.356H193.741C198.414 378.369 202.898 376.508 206.202 373.185C209.506 369.862 211.357 365.351 211.343 360.652V325.699C211.343 290.731 229.891 258.42 260 240.936C290.109 223.452 327.205 223.452 357.314 240.936C387.423 258.42 405.971 290.731 405.971 325.699V360.652C405.971 370.429 413.852 378.356 423.573 378.356H448.419C458.141 378.356 466.021 370.429 466.021 360.652L465.921 222.056ZM146.719 174.788C143.425 180.134 138.907 184.608 133.542 187.839C124.194 193.233 112.969 194.249 102.814 190.621C101.338 190.161 99.9334 189.497 98.6398 188.648C87.0402 182.242 79.8314 169.99 79.8314 156.68C79.8314 143.37 87.0402 131.118 98.6398 124.712C99.9942 123.842 101.468 123.178 103.015 122.739C116.216 118.071 130.908 121.368 140.885 131.237C147.898 137.752 151.875 146.926 151.848 156.528C151.837 162.973 150.063 169.291 146.719 174.788Z" fill="#FCFCFC"/>
</svg>
