<svg width="620" height="145" viewBox="0 0 620 145" fill="none" xmlns="http://www.w3.org/2000/svg">
<rect x="0.0283203" y="0.0634766" width="619.218" height="144.419" rx="12" fill="#FAFAFA"/>
<path d="M200.378 57.9916C203.318 57.9916 205.656 58.7336 207.392 60.2176C209.156 61.6736 210.038 63.8296 210.038 66.6856C210.038 69.5416 209.156 71.7116 207.392 73.1956C205.656 74.6516 203.318 75.3796 200.378 75.3796H191.894V86.4676C191.894 87.0836 191.572 87.3916 190.928 87.3916H190.172C189.556 87.3916 189.248 87.0836 189.248 86.4676V58.9576C189.248 58.3136 189.556 57.9916 190.172 57.9916H200.378ZM191.894 72.8596H200.168C202.632 72.8596 204.452 72.3416 205.628 71.3056C206.804 70.2416 207.392 68.7016 207.392 66.6856C207.392 64.6696 206.804 63.1436 205.628 62.1076C204.452 61.0436 202.632 60.5116 200.168 60.5116H191.894V72.8596ZM223.104 65.1316C224.616 65.1316 225.946 65.3836 227.094 65.8876C228.242 66.3636 229.194 67.0356 229.95 67.9036C230.734 68.7436 231.322 69.7516 231.714 70.9276C232.134 72.1036 232.372 73.3636 232.428 74.7076C232.428 74.9316 232.428 75.1976 232.428 75.5056C232.456 75.8136 232.47 76.1356 232.47 76.4716C232.47 76.8076 232.456 77.1436 232.428 77.4796C232.428 77.7876 232.428 78.0396 232.428 78.2356C232.372 79.5796 232.134 80.8396 231.714 82.0156C231.322 83.1916 230.734 84.2136 229.95 85.0816C229.194 85.9216 228.242 86.5936 227.094 87.0976C225.946 87.5736 224.616 87.8116 223.104 87.8116C221.592 87.8116 220.262 87.5736 219.114 87.0976C217.966 86.5936 217 85.9216 216.216 85.0816C215.46 84.2136 214.872 83.1916 214.452 82.0156C214.032 80.8396 213.808 79.5796 213.78 78.2356C213.78 78.0396 213.766 77.7876 213.738 77.4796C213.738 77.1436 213.738 76.8076 213.738 76.4716C213.738 76.1356 213.738 75.8136 213.738 75.5056C213.766 75.1976 213.78 74.9316 213.78 74.7076C213.808 73.3636 214.032 72.1036 214.452 70.9276C214.872 69.7516 215.46 68.7436 216.216 67.9036C217 67.0356 217.966 66.3636 219.114 65.8876C220.262 65.3836 221.592 65.1316 223.104 65.1316ZM229.866 74.9176C229.782 72.5096 229.124 70.6896 227.892 69.4576C226.66 68.1976 225.064 67.5676 223.104 67.5676C221.144 67.5676 219.548 68.1976 218.316 69.4576C217.084 70.6896 216.426 72.5096 216.342 74.9176C216.314 75.3376 216.3 75.8556 216.3 76.4716C216.3 77.0876 216.314 77.6056 216.342 78.0256C216.426 80.4336 217.084 82.2676 218.316 83.5276C219.548 84.7596 221.144 85.3756 223.104 85.3756C225.064 85.3756 226.66 84.7596 227.892 83.5276C229.124 82.2676 229.782 80.4336 229.866 78.0256C229.894 77.6056 229.908 77.0876 229.908 76.4716C229.908 75.8556 229.894 75.3376 229.866 74.9176ZM257.835 83.6536L263.001 66.1816C263.029 66.0696 263.113 65.9436 263.253 65.8036C263.421 65.6356 263.645 65.5516 263.925 65.5516H264.723C264.947 65.5516 265.143 65.6356 265.311 65.8036C265.479 65.9716 265.563 66.1676 265.563 66.3916C265.563 66.5316 265.535 66.6856 265.479 66.8536L259.557 86.3416C259.417 86.7056 259.249 86.9716 259.053 87.1396C258.885 87.3076 258.605 87.3916 258.213 87.3916H257.499C256.743 87.3916 256.267 87.0416 256.071 86.3416L250.779 69.7936L245.487 86.3416C245.291 87.0416 244.815 87.3916 244.059 87.3916H243.345C242.953 87.3916 242.659 87.3076 242.463 87.1396C242.295 86.9716 242.141 86.7056 242.001 86.3416L236.079 66.8536C236.023 66.6856 235.995 66.5316 235.995 66.3916C235.995 66.1676 236.079 65.9716 236.247 65.8036C236.415 65.6356 236.611 65.5516 236.835 65.5516H237.633C237.913 65.5516 238.123 65.6356 238.263 65.8036C238.431 65.9436 238.529 66.0696 238.557 66.1816L243.723 83.6536L249.225 66.3916C249.281 66.2236 249.393 66.0416 249.561 65.8456C249.729 65.6496 249.995 65.5516 250.359 65.5516H251.199C251.563 65.5516 251.829 65.6496 251.997 65.8456C252.165 66.0416 252.277 66.2236 252.333 66.3916L257.835 83.6536ZM269.067 74.7916C269.179 73.3636 269.459 72.0616 269.907 70.8856C270.383 69.6816 270.999 68.6596 271.755 67.8196C272.539 66.9796 273.477 66.3216 274.569 65.8456C275.661 65.3696 276.893 65.1316 278.265 65.1316C281.205 65.1316 283.487 66.0976 285.111 68.0296C286.735 69.9336 287.547 72.5796 287.547 75.9676V76.5976C287.547 76.8776 287.449 77.1016 287.253 77.2696C287.085 77.4376 286.861 77.5216 286.581 77.5216H271.629V77.9416C271.657 78.8936 271.825 79.8176 272.133 80.7136C272.469 81.6096 272.917 82.4076 273.477 83.1076C274.037 83.7796 274.723 84.3256 275.535 84.7456C276.347 85.1656 277.257 85.3756 278.265 85.3756C279.161 85.3756 279.945 85.2636 280.617 85.0396C281.289 84.8156 281.863 84.5636 282.339 84.2836C282.815 83.9756 283.193 83.6676 283.473 83.3596C283.781 83.0516 283.991 82.8136 284.103 82.6456C284.355 82.2816 284.551 82.0716 284.691 82.0156C284.831 81.9316 285.055 81.8896 285.363 81.8896H286.035C286.287 81.8896 286.497 81.9736 286.665 82.1416C286.861 82.2816 286.945 82.4776 286.917 82.7296C286.889 83.1216 286.665 83.6116 286.245 84.1996C285.853 84.7876 285.279 85.3476 284.523 85.8796C283.795 86.4116 282.899 86.8736 281.835 87.2656C280.771 87.6296 279.581 87.8116 278.265 87.8116C276.921 87.8116 275.703 87.5876 274.611 87.1396C273.519 86.6636 272.581 86.0056 271.797 85.1656C271.013 84.2976 270.383 83.2756 269.907 82.0996C269.459 80.8956 269.179 79.5796 269.067 78.1516C269.039 77.7316 269.025 77.1716 269.025 76.4716C269.025 75.7716 269.039 75.2116 269.067 74.7916ZM271.629 75.1696H284.985V75.0016C284.985 73.9656 284.831 72.9996 284.523 72.1036C284.215 71.1796 283.767 70.3816 283.179 69.7096C282.619 69.0376 281.919 68.5196 281.079 68.1556C280.239 67.7636 279.301 67.5676 278.265 67.5676C277.201 67.5676 276.263 67.7636 275.451 68.1556C274.639 68.5196 273.939 69.0376 273.351 69.7096C272.791 70.3816 272.357 71.1796 272.049 72.1036C271.769 72.9996 271.629 73.9656 271.629 75.0016V75.1696ZM295.649 68.4496C296.657 66.5176 298.561 65.5516 301.361 65.5516H302.915C303.531 65.5516 303.839 65.8596 303.839 66.4756V67.0636C303.839 67.6796 303.531 67.9876 302.915 67.9876H301.109C299.429 67.9876 298.099 68.4776 297.119 69.4576C296.139 70.4376 295.649 71.7676 295.649 73.4476V86.4676C295.649 86.7476 295.551 86.9716 295.355 87.1396C295.187 87.3076 294.963 87.3916 294.683 87.3916H294.011C293.395 87.3916 293.087 87.0836 293.087 86.4676V66.5176C293.087 66.2376 293.171 66.0136 293.339 65.8456C293.507 65.6496 293.731 65.5516 294.011 65.5516H294.683C294.963 65.5516 295.187 65.6496 295.355 65.8456C295.551 66.0136 295.649 66.2376 295.649 66.5176V68.4496ZM306.104 74.7916C306.216 73.3636 306.496 72.0616 306.944 70.8856C307.42 69.6816 308.036 68.6596 308.792 67.8196C309.576 66.9796 310.514 66.3216 311.606 65.8456C312.698 65.3696 313.93 65.1316 315.302 65.1316C318.242 65.1316 320.524 66.0976 322.148 68.0296C323.772 69.9336 324.584 72.5796 324.584 75.9676V76.5976C324.584 76.8776 324.486 77.1016 324.29 77.2696C324.122 77.4376 323.898 77.5216 323.618 77.5216H308.666V77.9416C308.694 78.8936 308.862 79.8176 309.17 80.7136C309.506 81.6096 309.954 82.4076 310.514 83.1076C311.074 83.7796 311.76 84.3256 312.572 84.7456C313.384 85.1656 314.294 85.3756 315.302 85.3756C316.198 85.3756 316.982 85.2636 317.654 85.0396C318.326 84.8156 318.9 84.5636 319.376 84.2836C319.852 83.9756 320.23 83.6676 320.51 83.3596C320.818 83.0516 321.028 82.8136 321.14 82.6456C321.392 82.2816 321.588 82.0716 321.728 82.0156C321.868 81.9316 322.092 81.8896 322.4 81.8896H323.072C323.324 81.8896 323.534 81.9736 323.702 82.1416C323.898 82.2816 323.982 82.4776 323.954 82.7296C323.926 83.1216 323.702 83.6116 323.282 84.1996C322.89 84.7876 322.316 85.3476 321.56 85.8796C320.832 86.4116 319.936 86.8736 318.872 87.2656C317.808 87.6296 316.618 87.8116 315.302 87.8116C313.958 87.8116 312.74 87.5876 311.648 87.1396C310.556 86.6636 309.618 86.0056 308.834 85.1656C308.05 84.2976 307.42 83.2756 306.944 82.0996C306.496 80.8956 306.216 79.5796 306.104 78.1516C306.076 77.7316 306.062 77.1716 306.062 76.4716C306.062 75.7716 306.076 75.2116 306.104 74.7916ZM308.666 75.1696H322.022V75.0016C322.022 73.9656 321.868 72.9996 321.56 72.1036C321.252 71.1796 320.804 70.3816 320.216 69.7096C319.656 69.0376 318.956 68.5196 318.116 68.1556C317.276 67.7636 316.338 67.5676 315.302 67.5676C314.238 67.5676 313.3 67.7636 312.488 68.1556C311.676 68.5196 310.976 69.0376 310.388 69.7096C309.828 70.3816 309.394 71.1796 309.086 72.1036C308.806 72.9996 308.666 73.9656 308.666 75.0016V75.1696ZM338.02 65.1316C339.784 65.1316 341.226 65.4536 342.346 66.0976C343.466 66.7416 344.376 67.5256 345.076 68.4496V58.4956C345.076 57.8796 345.384 57.5716 346 57.5716H346.714C347.33 57.5716 347.638 57.8796 347.638 58.4956V86.4676C347.638 87.0836 347.33 87.3916 346.714 87.3916H346C345.384 87.3916 345.076 87.0836 345.076 86.4676V84.4936C344.376 85.4456 343.466 86.2436 342.346 86.8876C341.226 87.5036 339.784 87.8116 338.02 87.8116C336.368 87.8116 334.982 87.5176 333.862 86.9296C332.742 86.3136 331.832 85.5296 331.132 84.5776C330.432 83.5976 329.914 82.5056 329.578 81.3016C329.242 80.0976 329.06 78.8796 329.032 77.6476C329.004 76.8636 329.004 76.0796 329.032 75.2956C329.06 74.0636 329.242 72.8456 329.578 71.6416C329.914 70.4376 330.432 69.3596 331.132 68.4076C331.832 67.4276 332.742 66.6436 333.862 66.0556C334.982 65.4396 336.368 65.1316 338.02 65.1316ZM345.076 77.9836C345.104 77.5636 345.118 77.0176 345.118 76.3456C345.118 75.6736 345.104 75.1276 345.076 74.7076C345.048 73.8676 344.894 73.0276 344.614 72.1876C344.362 71.3196 343.956 70.5496 343.396 69.8776C342.836 69.2056 342.136 68.6596 341.296 68.2396C340.456 67.7916 339.448 67.5676 338.272 67.5676C337.04 67.5676 336.004 67.7916 335.164 68.2396C334.352 68.6596 333.68 69.2336 333.148 69.9616C332.644 70.6616 332.266 71.4736 332.014 72.3976C331.762 73.3216 331.622 74.2876 331.594 75.2956C331.566 76.0796 331.566 76.8636 331.594 77.6476C331.622 78.6556 331.762 79.6356 332.014 80.5876C332.266 81.5116 332.644 82.3376 333.148 83.0656C333.68 83.7656 334.352 84.3256 335.164 84.7456C336.004 85.1656 337.04 85.3756 338.272 85.3756C339.476 85.3756 340.498 85.1516 341.338 84.7036C342.178 84.2556 342.864 83.6816 343.396 82.9816C343.956 82.2536 344.362 81.4556 344.614 80.5876C344.894 79.7196 345.048 78.8516 345.076 77.9836ZM374.976 65.1316C376.6 65.1316 377.972 65.4396 379.092 66.0556C380.24 66.6436 381.164 67.4276 381.864 68.4076C382.564 69.3596 383.068 70.4376 383.376 71.6416C383.712 72.8456 383.908 74.0636 383.964 75.2956C383.992 76.0796 383.992 76.8636 383.964 77.6476C383.908 78.8796 383.712 80.0976 383.376 81.3016C383.068 82.5056 382.564 83.5976 381.864 84.5776C381.164 85.5296 380.24 86.3136 379.092 86.9296C377.972 87.5176 376.6 87.8116 374.976 87.8116C373.212 87.8116 371.77 87.5036 370.65 86.8876C369.53 86.2436 368.62 85.4456 367.92 84.4936V86.4676C367.92 87.0836 367.612 87.3916 366.996 87.3916H366.282C365.666 87.3916 365.358 87.0836 365.358 86.4676V58.4956C365.358 57.8796 365.666 57.5716 366.282 57.5716H366.996C367.612 57.5716 367.92 57.8796 367.92 58.4956V68.4496C368.62 67.5256 369.53 66.7416 370.65 66.0976C371.77 65.4536 373.212 65.1316 374.976 65.1316ZM367.92 77.9836C367.948 78.8516 368.088 79.7196 368.34 80.5876C368.62 81.4556 369.026 82.2536 369.558 82.9816C370.118 83.6816 370.818 84.2556 371.658 84.7036C372.498 85.1516 373.52 85.3756 374.724 85.3756C375.956 85.3756 376.978 85.1656 377.79 84.7456C378.63 84.3256 379.302 83.7656 379.806 83.0656C380.338 82.3376 380.716 81.5116 380.94 80.5876C381.192 79.6356 381.346 78.6556 381.402 77.6476C381.43 76.8636 381.43 76.0796 381.402 75.2956C381.346 74.2876 381.192 73.3216 380.94 72.3976C380.716 71.4736 380.338 70.6616 379.806 69.9616C379.302 69.2336 378.63 68.6596 377.79 68.2396C376.978 67.7916 375.956 67.5676 374.724 67.5676C373.548 67.5676 372.54 67.7916 371.7 68.2396C370.86 68.6596 370.16 69.2056 369.6 69.8776C369.04 70.5496 368.62 71.3196 368.34 72.1876C368.088 73.0276 367.948 73.8676 367.92 74.7076C367.892 75.1276 367.878 75.6736 367.878 76.3456C367.878 77.0176 367.892 77.5636 367.92 77.9836ZM394.402 94.7416C394.318 94.9096 394.206 95.0496 394.066 95.1616C393.926 95.3016 393.716 95.3716 393.436 95.3716H392.596C392.372 95.3716 392.176 95.2876 392.008 95.1196C391.84 94.9516 391.756 94.7556 391.756 94.5316C391.756 94.3916 391.84 94.1116 392.008 93.6916L395.242 86.1316L387.22 67.2316C387.052 66.8116 386.968 66.5316 386.968 66.3916C386.968 66.1676 387.052 65.9716 387.22 65.8036C387.388 65.6356 387.584 65.5516 387.808 65.5516H388.69C388.97 65.5516 389.18 65.6216 389.32 65.7616C389.46 65.8736 389.572 66.0136 389.656 66.1816L396.712 82.8136L403.936 66.1816C404.02 66.0136 404.132 65.8736 404.272 65.7616C404.412 65.6216 404.622 65.5516 404.902 65.5516H405.742C405.966 65.5516 406.162 65.6356 406.33 65.8036C406.498 65.9716 406.582 66.1676 406.582 66.3916C406.582 66.5316 406.498 66.8116 406.33 67.2316L394.402 94.7416Z" fill="#323232"/>
<path d="M494.453 57.5352C494.934 57.5352 495.349 57.7099 495.698 58.0594C496.048 58.4089 496.222 58.8239 496.222 59.3044V65.9228C496.222 66.4033 496.048 66.8183 495.698 67.1678C495.349 67.5173 494.934 67.692 494.453 67.692H488.49C484.471 67.692 482.462 69.7015 482.462 73.7206V89.8405C482.462 90.321 482.287 90.736 481.937 91.0855C481.588 91.435 481.173 91.6098 480.692 91.6098H472.436C471.956 91.6098 471.541 91.435 471.191 91.0855C470.842 90.736 470.667 90.321 470.667 89.8405V59.3044C470.667 58.8239 470.842 58.4089 471.191 58.0594C471.541 57.7099 471.956 57.5352 472.436 57.5352H480.037C480.518 57.5352 480.933 57.7099 481.282 58.0594C481.632 58.4089 481.806 58.8239 481.806 59.3044V60.8116C482.811 59.8505 484.012 59.0641 485.41 58.4525C486.852 57.841 488.556 57.5352 490.522 57.5352H494.453Z" fill="#323232"/>
<path d="M433.53 81.2212C433.53 78.3379 434.622 75.9571 436.807 74.0786C439.035 72.2001 442.639 70.8241 447.619 69.9503L455.286 68.6398C455.286 67.5913 455.002 66.7395 454.434 66.0842C453.866 65.3852 452.883 65.0357 451.485 65.0357C450.48 65.0357 449.694 65.1886 449.126 65.4944C448.602 65.7566 448.209 65.9968 447.946 66.2152C447.553 66.5647 447.182 66.7832 446.832 66.8705C446.483 66.9579 446.068 67.0016 445.587 67.0016H437.265C436.829 67.0016 436.457 66.8705 436.151 66.6084C435.889 66.3463 435.78 65.9968 435.824 65.56C435.911 64.5552 436.348 63.5068 437.134 62.4146C437.921 61.3225 438.991 60.3177 440.345 59.4003C441.743 58.4829 443.381 57.7184 445.26 57.1068C447.182 56.4953 449.257 56.1895 451.485 56.1895C454.15 56.1895 456.465 56.5171 458.431 57.1724C460.397 57.8277 462.013 58.745 463.28 59.9246C464.591 61.0604 465.552 62.4365 466.163 64.0528C466.775 65.6255 467.081 67.3729 467.081 69.2951V89.6099C467.081 90.0905 466.906 90.5055 466.556 90.8549C466.207 91.2044 465.792 91.3792 465.311 91.3792H457.055C456.574 91.3792 456.159 91.2044 455.81 90.8549C455.46 90.5055 455.286 90.0905 455.286 89.6099V87.3153C454.237 88.6258 452.927 89.6743 451.354 90.4606C449.825 91.2033 447.794 91.5746 445.26 91.5746C443.381 91.5746 441.699 91.3125 440.214 90.7883C438.773 90.264 437.549 89.5432 436.545 88.6258C435.583 87.7085 434.841 86.6163 434.317 85.3494C433.792 84.0826 433.53 82.7065 433.53 81.2212ZM448.471 82.7283C449.432 82.7283 450.327 82.5754 451.157 82.2696C451.987 81.9201 452.708 81.4614 453.32 80.8935C453.931 80.3256 454.412 79.6703 454.761 78.9277C455.111 78.1414 455.286 77.3113 455.286 76.4376L449.257 77.355C448.078 77.5734 447.116 77.9448 446.374 78.469C445.675 78.9932 445.325 79.6703 445.325 80.5004C445.325 81.3304 445.587 81.9201 446.112 82.2696C446.68 82.5754 447.466 82.7283 448.471 82.7283Z" fill="#323232"/>
<path d="M511.85 89.8398C511.85 90.3203 511.675 90.7353 511.326 91.0848C510.977 91.4343 510.562 91.609 510.081 91.609H501.497C501.016 91.609 500.601 91.4343 500.252 91.0848C499.902 90.7353 499.728 90.3203 499.728 89.8398V81.2556C499.728 80.775 499.902 80.36 500.252 80.0106C500.601 79.6611 501.016 79.4863 501.497 79.4863H510.081C510.562 79.4863 510.977 79.6611 511.326 80.0106C511.675 80.36 511.85 80.775 511.85 81.2556V89.8398Z" fill="#323232"/>
<path d="M527.117 89.8404C527.117 90.321 526.943 90.736 526.593 91.0855C526.244 91.4349 525.829 91.6097 525.348 91.6097H517.092C516.611 91.6097 516.196 91.4349 515.846 91.0855C515.497 90.736 515.322 90.321 515.322 89.8404V59.3043C515.322 58.8238 515.497 58.4088 515.846 58.0593C516.196 57.7098 516.611 57.5351 517.092 57.5351H525.348C525.829 57.5351 526.244 57.7098 526.593 58.0593C526.943 58.4088 527.117 58.8238 527.117 59.3043V89.8404ZM527.117 51.2421C527.117 51.7226 526.943 52.1376 526.593 52.4871C526.244 52.8366 525.829 53.0113 525.348 53.0113H517.092C516.611 53.0113 516.196 52.8366 515.846 52.4871C515.497 52.1376 515.322 51.7226 515.322 51.2421V44.6238C515.322 44.1432 515.497 43.7282 515.846 43.3787C516.196 43.0292 516.611 42.8545 517.092 42.8545H525.348C525.829 42.8545 526.244 43.0292 526.593 43.3787C526.943 43.7282 527.117 44.1432 527.117 44.6238V51.2421Z" fill="#323232"/>
<path d="M566.388 71.5082C566.432 72.1635 566.454 73.0153 566.454 74.0638C566.454 75.0685 566.432 75.8986 566.388 76.5538C566.301 78.6507 565.82 80.6166 564.946 82.4514C564.073 84.2861 562.871 85.9025 561.342 87.3004C559.813 88.6547 557.957 89.725 555.773 90.5113C553.632 91.2977 551.229 91.6908 548.564 91.6908C545.9 91.6908 543.475 91.2977 541.291 90.5113C539.15 89.725 537.315 88.6547 535.786 87.3004C534.257 85.9025 533.056 84.2861 532.182 82.4514C531.309 80.6166 530.828 78.6507 530.741 76.5538C530.697 75.8986 530.675 75.0685 530.675 74.0638C530.675 73.0153 530.697 72.1635 530.741 71.5082C530.785 69.4113 531.243 67.4454 532.117 65.6107C532.991 63.7759 534.192 62.1813 535.721 60.8271C537.294 59.4292 539.15 58.337 541.291 57.5507C543.475 56.7207 545.9 56.3057 548.564 56.3057C551.229 56.3057 553.632 56.7207 555.773 57.5507C557.957 58.337 559.813 59.4292 561.342 60.8271C562.915 62.1813 564.116 63.7759 564.946 65.6107C565.82 67.4454 566.301 69.4113 566.388 71.5082ZM542.536 76.2262C542.667 77.8862 543.257 79.1968 544.305 80.1579C545.397 81.0753 546.817 81.534 548.564 81.534C550.312 81.534 551.71 81.0753 552.758 80.1579C553.85 79.1968 554.462 77.8862 554.593 76.2262C554.68 75.5709 554.724 74.8283 554.724 73.9982C554.724 73.1682 554.68 72.4256 554.593 71.7703C554.462 70.1102 553.85 68.8215 552.758 67.9041C551.71 66.9431 550.312 66.4625 548.564 66.4625C546.817 66.4625 545.397 66.9431 544.305 67.9041C543.257 68.8215 542.667 70.1102 542.536 71.7703C542.448 72.4256 542.405 73.1682 542.405 73.9982C542.405 74.8283 542.448 75.5709 542.536 76.2262Z" fill="#323232"/>
<path d="M101.772 76.8755C101.772 59.707 87.9341 45.7891 70.8643 45.7891C53.7943 45.7891 39.2944 59.707 39.2944 76.8755V96.2778C39.2926 96.9358 39.5516 97.5673 40.0141 98.0325C40.4766 98.4977 41.1045 98.7582 41.7586 98.7563H45.2789C45.933 98.7582 46.5608 98.4977 47.0234 98.0325C47.4859 97.5673 47.7449 96.9358 47.743 96.2778V80.1611C47.743 78.7923 48.8463 77.6827 50.2072 77.6827H55.22C56.5809 77.6827 57.6842 78.7923 57.6842 80.1611V96.2778C57.6823 96.9358 57.9413 97.5673 58.4039 98.0325C58.8663 98.4977 59.4942 98.7582 60.1483 98.7563H63.6686C64.3227 98.7582 64.9506 98.4977 65.413 98.0325C65.8756 97.5673 66.1346 96.9358 66.1327 96.2778V91.3847C66.1327 86.4895 68.7294 81.9661 72.9444 79.5185C77.1595 77.0708 82.3527 77.0708 86.5677 79.5185C90.7828 81.9661 93.3794 86.4895 93.3794 91.3847V96.2778C93.3794 97.6466 94.4827 98.7563 95.8436 98.7563H99.3218C100.683 98.7563 101.786 97.6466 101.786 96.2778L101.772 76.8755ZM57.0857 70.2583C56.6246 71.0066 55.9921 71.633 55.2411 72.0852C53.9325 72.8403 52.3611 72.9826 50.9394 72.4747C50.7328 72.4104 50.5361 72.3174 50.355 72.1985C48.7312 71.3018 47.722 69.5865 47.722 67.7233C47.722 65.8599 48.7312 64.1447 50.355 63.2479C50.5447 63.1261 50.751 63.0332 50.9676 62.9717C52.8156 62.3182 54.8724 62.7797 56.2691 64.1613C57.251 65.0734 57.8076 66.3577 57.8039 67.702C57.8024 68.6042 57.5539 69.4887 57.0857 70.2583Z" fill="#171717"/>
<path d="M104.52 76.8755C104.52 59.707 90.6826 45.7891 73.6128 45.7891C56.5429 45.7891 42.043 59.707 42.043 76.8755V96.2778C42.0411 96.9358 42.3001 97.5673 42.7626 98.0325C43.2252 98.4977 43.853 98.7582 44.5072 98.7563H48.0274C48.6815 98.7582 49.3094 98.4977 49.7719 98.0325C50.2344 97.5673 50.4934 96.9358 50.4916 96.2778V80.1611C50.4916 78.7923 51.5948 77.6827 52.9557 77.6827H57.9685C59.3294 77.6827 60.4327 78.7923 60.4327 80.1611V96.2778C60.4308 96.9358 60.6898 97.5673 61.1524 98.0325C61.6149 98.4977 62.2427 98.7582 62.8968 98.7563H66.4171C67.0712 98.7582 67.6991 98.4977 68.1616 98.0325C68.6242 97.5673 68.8831 96.9358 68.8812 96.2778V91.3847C68.8812 86.4895 71.4779 81.9661 75.6929 79.5185C79.9081 77.0708 85.1012 77.0708 89.3162 79.5185C93.5314 81.9661 96.1279 86.4895 96.1279 91.3847V96.2778C96.1279 97.6466 97.2312 98.7563 98.5921 98.7563H102.07C103.431 98.7563 104.535 97.6466 104.535 96.2778L104.52 76.8755ZM59.8342 70.2583C59.3731 71.0066 58.7406 71.633 57.9896 72.0852C56.681 72.8403 55.1096 72.9826 53.6879 72.4747C53.4814 72.4104 53.2846 72.3174 53.1036 72.1985C51.4797 71.3018 50.4705 69.5865 50.4705 67.7233C50.4705 65.8599 51.4797 64.1447 53.1036 63.2479C53.2931 63.1261 53.4995 63.0332 53.7161 62.9717C55.5641 62.3182 57.621 62.7797 59.0176 64.1613C59.9995 65.0734 60.5561 66.3577 60.5524 67.702C60.5509 68.6042 60.3024 69.4887 59.8342 70.2583Z" fill="#323232"/>
<line x1="144.917" y1="0.0634766" x2="144.917" y2="144.482" stroke="#DBDBDB"/>
</svg>
